<?xml version="1.0" standalone="no"?><!DOCTYPE svg PUBLIC "-//W3C//DTD SVG 1.1//EN" "http://www.w3.org/Graphics/SVG/1.1/DTD/svg11.dtd"><svg width="32.03125" height="32" viewBox="0 0 32.03125 32" version="1.1" xmlns="http://www.w3.org/2000/svg" xmlns:xlink="http://www.w3.org/1999/xlink"><defs><style type="text/css"><![CDATA[
@font-face { font-family: ifont; src: url("//at.alicdn.com/t/font_1442373896_4754455.eot?#iefix") format("embedded-opentype"), url("//at.alicdn.com/t/font_1442373896_4754455.woff") format("woff"), url("//at.alicdn.com/t/font_1442373896_4754455.ttf") format("truetype"), url("//at.alicdn.com/t/font_1442373896_4754455.svg#ifont") format("svg"); }

]]></style></defs><g class="transform-group"><g transform="scale(0.03125, 0.03125)"><path d="M512.015 0C229.229 0 0.001 229.221 0.001 512c0 282.776 229.227 512 512.013 512 282.758 0 511.987-229.224 511.987-512C1024.001 229.221 794.771 0 512.015 0zM730.325 681.889c13.333 13.445 13.333 35.112-0.056 48.447-6.666 6.667-15.39 9.998-24.168 9.998-8.777 0-17.557-3.331-24.224-10.056L511.793 559.113 342.009 727.667c-6.667 6.667-15.445 10-24.168 10-8.777 0-17.556-3.445-24.223-10.113-13.333-13.444-13.278-35.11 0.112-48.443l169.783-168.445-167.45-168.499c-13.333-13.419-13.333-35.111 0.057-48.444 13.445-13.362 35.112-13.307 48.39 0.055l167.505 168.556 169.979-168.64c13.388-13.361 35-13.333 48.39 0.112 13.334 13.444 13.277 35.084-0.166 48.417L560.32 510.861 730.325 681.889z" fill="#d8d8d8"></path></g></g></svg>